# xmcd
#
# Track frame offsets: 
#        150
#        19950
#        32995
#        48719
#        69094
#        88452
#        107968
#        132398
#        146311
#        159410
#        183479
#        201704
#        220799
#
# Disc length: 3186 seconds
#
# Revision: 0
# Processed by: cddbd v1.5.2PL0 Copyright (c) Steve Scherf et al.
# Submitted via: ExactAudioCopyFreeDBPlugin 1.0
#
DISCID=c90c700d
DTITLE=Hugh Laurie - Didn`t it rain
DYEAR=1900
DGENRE=Blues
TTITLE0=The St. Louis Blues
TTITLE1=Junkers Blues
TTITLE2=Kiss of fire
TTITLE3=Vicksberg Blues
TTITLE4=The weed smokers dream
TTITLE5=Wild honey
TTITLE6=Send me to the `lectric chair
TTITLE7=Evenin
TTITLE8=`Didn`t it rain
TTITLE9=Careless love
TTITLE10=One for my baby
TTITLE11=I hate a man like you
TTITLE12=Changes
EXTD=
EXTT0=
EXTT1=
EXTT2=
EXTT3=
EXTT4=
EXTT5=
EXTT6=
EXTT7=
EXTT8=
EXTT9=
EXTT10=
EXTT11=
EXTT12=
PLAYORDER=
